<svg width="32" height="32" viewBox="0 0 32 32" fill="none" xmlns="http://www.w3.org/2000/svg">
  <!-- Background circle -->
  <circle cx="16" cy="16" r="16" fill="#3B82F6"/>
  
  <!-- Brain/head silhouette -->
  <path d="M16 8C12.5 8 10 10.5 10 14C10 16 11 17.5 12.5 18.5C11.5 19.5 11 21 11 22.5C11 24.5 12.5 26 14.5 26H17.5C19.5 26 21 24.5 21 22.5C21 21 20.5 19.5 19.5 18.5C21 17.5 22 16 22 14C22 10.5 19.5 8 16 8Z" fill="white"/>
  
  <!-- Brain details -->
  <path d="M14 12C14.5 12 15 12.5 15 13C15 13.5 14.5 14 14 14C13.5 14 13 13.5 13 13C13 12.5 13.5 12 14 12Z" fill="#3B82F6"/>
  <path d="M18 12C18.5 12 19 12.5 19 13C19 13.5 18.5 14 18 14C17.5 14 17 13.5 17 13C17 12.5 17.5 12 18 12Z" fill="#3B82F6"/>
  
  <!-- Brain waves -->
  <path d="M13 16C13.5 16 14 16.5 14 17C14 17.5 13.5 18 13 18C12.5 18 12 17.5 12 17C12 16.5 12.5 16 13 16Z" fill="#3B82F6"/>
  <path d="M19 16C19.5 16 20 16.5 20 17C20 17.5 19.5 18 19 18C18.5 18 18 17.5 18 17C18 16.5 18.5 16 19 16Z" fill="#3B82F6"/>
  
  <!-- Center brain detail -->
  <path d="M16 15C16.5 15 17 15.5 17 16C17 16.5 16.5 17 16 17C15.5 17 15 16.5 15 16C15 15.5 15.5 15 16 15Z" fill="#3B82F6"/>
</svg>
